<mxfile host="app.diagrams.net" agent="Mozilla/5.0 (Windows NT 10.0; Win64; x64) AppleWebKit/537.36 (KHTML, like Gecko) Chrome/131.0.0.0 Safari/537.36" version="25.0.3">
  <diagram name="Page-1" id="2c0d36ab-eaac-3732-788b-9136903baeff">
    <mxGraphModel dx="2150" dy="883" grid="1" gridSize="10" guides="1" tooltips="1" connect="1" arrows="1" fold="1" page="1" pageScale="1.5" pageWidth="1169" pageHeight="827" background="none" math="0" shadow="0">
      <root>
        <mxCell id="0" />
        <mxCell id="1" parent="0" />
        <mxCell id="2" value="Gacha Characters&#xa;and Timelines" style="rounded=1;fillColor=#23445D;gradientColor=none;strokeColor=none;fontColor=#FFFFFF;fontStyle=1;fontFamily=Tahoma;fontSize=14" parent="1" vertex="1">
          <mxGeometry x="400" width="190" height="80" as="geometry" />
        </mxCell>
        <mxCell id="10" value="House Lockhart: Xavier" style="rounded=1;fillColor=#23445D;gradientColor=none;strokeColor=none;fontColor=#FFFFFF;fontStyle=1;fontFamily=Tahoma;fontSize=14" parent="1" vertex="1">
          <mxGeometry x="990" y="245.5" width="190" height="80" as="geometry" />
        </mxCell>
        <mxCell id="12" value="House Angel: Amy" style="rounded=1;fillColor=#006600;gradientColor=none;strokeColor=none;fontColor=#FFFFFF;fontStyle=1;fontFamily=Tahoma;fontSize=14" parent="1" vertex="1">
          <mxGeometry x="399.9999999999999" y="165.5" width="190" height="80" as="geometry" />
        </mxCell>
        <mxCell id="13" value="Out of the Fade Realm" style="rounded=1;fillColor=#994C00;gradientColor=none;strokeColor=none;fontColor=#FFFFFF;fontStyle=1;fontFamily=Tahoma;fontSize=14" parent="1" vertex="1">
          <mxGeometry x="10" y="165.5" width="190" height="80" as="geometry" />
        </mxCell>
        <mxCell id="16" value="Talic" style="rounded=1;fillColor=#994C00;gradientColor=none;strokeColor=none;fontColor=#FFFFFF;fontStyle=1;fontFamily=Tahoma;fontSize=14" parent="1" vertex="1">
          <mxGeometry x="30" y="285.5" width="130" height="60" as="geometry" />
        </mxCell>
        <mxCell id="17" value="Mal&#39;ekhai" style="rounded=1;fillColor=#994C00;gradientColor=none;strokeColor=none;fontColor=#FFFFFF;fontStyle=1;fontFamily=Tahoma;fontSize=14" parent="1" vertex="1">
          <mxGeometry x="30" y="375.5" width="130" height="60" as="geometry" />
        </mxCell>
        <mxCell id="18" value="Cynkara" style="rounded=1;fillColor=#994C00;gradientColor=none;strokeColor=none;fontColor=#FFFFFF;fontStyle=1;fontFamily=Tahoma;fontSize=14" parent="1" vertex="1">
          <mxGeometry x="30" y="465.5" width="130" height="60" as="geometry" />
        </mxCell>
        <mxCell id="19" value="KiKi" style="rounded=1;fillColor=#994C00;gradientColor=none;strokeColor=none;fontColor=#FFFFFF;fontStyle=1;fontFamily=Tahoma;fontSize=14" parent="1" vertex="1">
          <mxGeometry x="30" y="555.5" width="130" height="60" as="geometry" />
        </mxCell>
        <mxCell id="20" value="Bug" style="rounded=1;fillColor=#994C00;gradientColor=none;strokeColor=#994C00;fontColor=#FFFFFF;fontStyle=1;fontFamily=Tahoma;fontSize=14" parent="1" vertex="1">
          <mxGeometry x="30" y="645.5" width="130" height="60" as="geometry" />
        </mxCell>
        <mxCell id="23" value="Crybaby" style="rounded=1;fillColor=#994C00;gradientColor=none;strokeColor=none;fontColor=#FFFFFF;fontStyle=1;fontFamily=Tahoma;fontSize=14" parent="1" vertex="1">
          <mxGeometry x="30" y="735.4999999999999" width="130" height="60" as="geometry" />
        </mxCell>
        <mxCell id="30" value="Madeline" style="rounded=1;fillColor=#006600;gradientColor=none;strokeColor=none;fontColor=#FFFFFF;fontStyle=1;fontFamily=Tahoma;fontSize=14" parent="1" vertex="1">
          <mxGeometry x="440" y="375.5" width="130" height="60" as="geometry" />
        </mxCell>
        <mxCell id="32" value="Erika" style="rounded=1;fillColor=#006600;gradientColor=none;strokeColor=none;fontColor=#FFFFFF;fontStyle=1;fontFamily=Tahoma;fontSize=14" parent="1" vertex="1">
          <mxGeometry x="440" y="560" width="130" height="60" as="geometry" />
        </mxCell>
        <mxCell id="33" value="Brea Rose" style="rounded=1;fillColor=#006600;gradientColor=none;strokeColor=none;fontColor=#FFFFFF;fontStyle=1;fontFamily=Tahoma;fontSize=14" parent="1" vertex="1">
          <mxGeometry x="440" y="285.5" width="130" height="60" as="geometry" />
        </mxCell>
        <mxCell id="59" value="" style="edgeStyle=elbowEdgeStyle;elbow=vertical;strokeWidth=2;rounded=0" parent="1" source="2" target="12" edge="1">
          <mxGeometry x="347" y="225.5" width="100" height="100" as="geometry">
            <mxPoint x="861.9999999999999" y="105.5" as="sourcePoint" />
            <mxPoint x="1466.9999999999998" y="175.5" as="targetPoint" />
          </mxGeometry>
        </mxCell>
        <mxCell id="61" value="" style="edgeStyle=elbowEdgeStyle;elbow=vertical;strokeWidth=2;rounded=0" parent="1" source="2" target="13" edge="1">
          <mxGeometry x="-23" y="135.5" width="100" height="100" as="geometry">
            <mxPoint x="-23" y="65.5" as="sourcePoint" />
            <mxPoint x="77" y="-34.5" as="targetPoint" />
          </mxGeometry>
        </mxCell>
        <mxCell id="64" value="" style="edgeStyle=elbowEdgeStyle;elbow=horizontal;strokeWidth=2;rounded=0" parent="1" source="13" target="16" edge="1">
          <mxGeometry x="-23" y="135.5" width="100" height="100" as="geometry">
            <mxPoint x="-23" y="65.5" as="sourcePoint" />
            <mxPoint x="77" y="-34.5" as="targetPoint" />
            <Array as="points">
              <mxPoint x="190" y="320" />
            </Array>
          </mxGeometry>
        </mxCell>
        <mxCell id="65" value="" style="edgeStyle=elbowEdgeStyle;elbow=horizontal;strokeWidth=2;rounded=0" parent="1" source="13" target="17" edge="1">
          <mxGeometry x="-23" y="135.5" width="100" height="100" as="geometry">
            <mxPoint x="-23" y="65.5" as="sourcePoint" />
            <mxPoint x="77" y="-34.5" as="targetPoint" />
            <Array as="points">
              <mxPoint x="190" y="406" />
            </Array>
          </mxGeometry>
        </mxCell>
        <mxCell id="66" value="" style="edgeStyle=elbowEdgeStyle;elbow=horizontal;strokeWidth=2;rounded=0" parent="1" source="13" target="18" edge="1">
          <mxGeometry x="-23" y="135.5" width="100" height="100" as="geometry">
            <mxPoint x="-23" y="65.5" as="sourcePoint" />
            <mxPoint x="77" y="-34.5" as="targetPoint" />
            <Array as="points">
              <mxPoint x="190" y="496" />
            </Array>
          </mxGeometry>
        </mxCell>
        <mxCell id="67" value="" style="edgeStyle=elbowEdgeStyle;elbow=horizontal;strokeWidth=2;rounded=0" parent="1" source="13" target="19" edge="1">
          <mxGeometry x="-23" y="135.5" width="100" height="100" as="geometry">
            <mxPoint x="-23" y="65.5" as="sourcePoint" />
            <mxPoint x="77" y="-34.5" as="targetPoint" />
            <Array as="points">
              <mxPoint x="190" y="586" />
            </Array>
          </mxGeometry>
        </mxCell>
        <mxCell id="68" value="" style="edgeStyle=elbowEdgeStyle;elbow=horizontal;strokeWidth=2;rounded=0" parent="1" source="13" target="20" edge="1">
          <mxGeometry x="-23" y="135.5" width="100" height="100" as="geometry">
            <mxPoint x="-23" y="65.5" as="sourcePoint" />
            <mxPoint x="77" y="-34.5" as="targetPoint" />
            <Array as="points">
              <mxPoint x="190" y="676" />
            </Array>
          </mxGeometry>
        </mxCell>
        <mxCell id="69" value="" style="edgeStyle=elbowEdgeStyle;elbow=horizontal;strokeWidth=2;rounded=0;entryX=1;entryY=0.5;entryDx=0;entryDy=0;exitX=0.446;exitY=0.994;exitDx=0;exitDy=0;exitPerimeter=0;" parent="1" source="13" target="23" edge="1">
          <mxGeometry x="-23" y="135.5" width="100" height="100" as="geometry">
            <mxPoint x="192" y="245.4999999999999" as="sourcePoint" />
            <mxPoint x="150" y="765.5" as="targetPoint" />
            <Array as="points">
              <mxPoint x="192" y="495.5" />
            </Array>
          </mxGeometry>
        </mxCell>
        <mxCell id="73" value="" style="edgeStyle=elbowEdgeStyle;elbow=horizontal;strokeWidth=2;rounded=0;exitX=0.5;exitY=1;exitDx=0;exitDy=0;" parent="1" source="33" target="30" edge="1">
          <mxGeometry x="-23" y="135.5" width="100" height="100" as="geometry">
            <mxPoint x="672" y="315.5" as="sourcePoint" />
            <mxPoint x="157" y="-34.5" as="targetPoint" />
            <Array as="points">
              <mxPoint x="505" y="370" />
            </Array>
          </mxGeometry>
        </mxCell>
        <mxCell id="102" value="" style="edgeStyle=elbowEdgeStyle;elbow=vertical;strokeWidth=2;rounded=0" parent="1" source="12" target="33" edge="1">
          <mxGeometry x="-23" y="135.5" width="100" height="100" as="geometry">
            <mxPoint x="57" y="65.5" as="sourcePoint" />
            <mxPoint x="157" y="-34.5" as="targetPoint" />
          </mxGeometry>
        </mxCell>
        <mxCell id="103" value="" style="edgeStyle=elbowEdgeStyle;elbow=vertical;strokeWidth=2;rounded=0" parent="1" edge="1">
          <mxGeometry x="-23" y="135.5" width="100" height="100" as="geometry">
            <mxPoint x="1094.9999999999995" y="321.0000000000002" as="sourcePoint" />
            <mxPoint x="1095" y="361" as="targetPoint" />
          </mxGeometry>
        </mxCell>
        <mxCell id="lK6diUsmbHhOEuIBp3vJ-125" value="" style="edgeStyle=elbowEdgeStyle;elbow=vertical;strokeWidth=2;rounded=0;entryX=0.559;entryY=0.061;entryDx=0;entryDy=0;entryPerimeter=0;exitX=0.5;exitY=1;exitDx=0;exitDy=0;" parent="1" source="2" target="10" edge="1">
          <mxGeometry x="347" y="225.5" width="100" height="100" as="geometry">
            <mxPoint x="490" y="130" as="sourcePoint" />
            <mxPoint x="675" y="220" as="targetPoint" />
            <Array as="points">
              <mxPoint x="800" y="120" />
            </Array>
          </mxGeometry>
        </mxCell>
        <mxCell id="lK6diUsmbHhOEuIBp3vJ-126" value="" style="edgeStyle=elbowEdgeStyle;elbow=horizontal;strokeWidth=2;rounded=0;exitX=0.5;exitY=1;exitDx=0;exitDy=0;entryX=0.5;entryY=0;entryDx=0;entryDy=0;" parent="1" target="32" edge="1">
          <mxGeometry x="-23" y="135.5" width="100" height="100" as="geometry">
            <mxPoint x="505" y="530" as="sourcePoint" />
            <mxPoint x="590" y="564.5" as="targetPoint" />
            <Array as="points" />
          </mxGeometry>
        </mxCell>
        <mxCell id="lK6diUsmbHhOEuIBp3vJ-133" value="Arielle" style="rounded=1;fillColor=#006600;gradientColor=none;strokeColor=none;fontColor=#FFFFFF;fontStyle=1;fontFamily=Tahoma;fontSize=14" parent="1" vertex="1">
          <mxGeometry x="440" y="740" width="130" height="60" as="geometry" />
        </mxCell>
        <mxCell id="lK6diUsmbHhOEuIBp3vJ-134" value="Juliette" style="rounded=1;fillColor=#006600;gradientColor=none;strokeColor=none;fontColor=#FFFFFF;fontStyle=1;fontFamily=Tahoma;fontSize=14" parent="1" vertex="1">
          <mxGeometry x="440" y="830" width="130" height="60" as="geometry" />
        </mxCell>
        <mxCell id="lK6diUsmbHhOEuIBp3vJ-135" value="Stacei" style="rounded=1;fillColor=#006600;gradientColor=none;strokeColor=none;fontColor=#FFFFFF;fontStyle=1;fontFamily=Tahoma;fontSize=14" parent="1" vertex="1">
          <mxGeometry x="440" y="650" width="130" height="60" as="geometry" />
        </mxCell>
        <mxCell id="lK6diUsmbHhOEuIBp3vJ-136" value="" style="edgeStyle=elbowEdgeStyle;elbow=horizontal;strokeWidth=2;rounded=0;exitX=0.5;exitY=1;exitDx=0;exitDy=0;" parent="1" source="lK6diUsmbHhOEuIBp3vJ-135" target="lK6diUsmbHhOEuIBp3vJ-133" edge="1">
          <mxGeometry x="-23" y="135.5" width="100" height="100" as="geometry">
            <mxPoint x="672" y="689.5" as="sourcePoint" />
            <mxPoint x="157" y="339.5" as="targetPoint" />
            <Array as="points">
              <mxPoint x="505" y="744" />
            </Array>
          </mxGeometry>
        </mxCell>
        <mxCell id="lK6diUsmbHhOEuIBp3vJ-137" value="" style="edgeStyle=elbowEdgeStyle;elbow=vertical;strokeWidth=2;rounded=0" parent="1" target="lK6diUsmbHhOEuIBp3vJ-135" edge="1">
          <mxGeometry x="-23" y="135.5" width="100" height="100" as="geometry">
            <mxPoint x="505" y="620" as="sourcePoint" />
            <mxPoint x="157" y="339.5" as="targetPoint" />
          </mxGeometry>
        </mxCell>
        <mxCell id="lK6diUsmbHhOEuIBp3vJ-138" value="" style="edgeStyle=elbowEdgeStyle;elbow=horizontal;strokeWidth=2;rounded=0;exitX=0.5;exitY=1;exitDx=0;exitDy=0;entryX=0.5;entryY=0;entryDx=0;entryDy=0;" parent="1" source="lK6diUsmbHhOEuIBp3vJ-133" target="lK6diUsmbHhOEuIBp3vJ-134" edge="1">
          <mxGeometry x="-23" y="135.5" width="100" height="100" as="geometry">
            <mxPoint x="590" y="814" as="sourcePoint" />
            <mxPoint x="590" y="844" as="targetPoint" />
            <Array as="points" />
          </mxGeometry>
        </mxCell>
        <mxCell id="lK6diUsmbHhOEuIBp3vJ-139" value="Julian" style="rounded=1;fillColor=#23445D;gradientColor=none;strokeColor=none;fontColor=#FFFFFF;fontStyle=1;fontFamily=Tahoma;fontSize=14" parent="1" vertex="1">
          <mxGeometry x="600" y="285.5" width="130" height="60" as="geometry" />
        </mxCell>
        <mxCell id="lK6diUsmbHhOEuIBp3vJ-140" value="Seth" style="rounded=1;fillColor=#23445D;gradientColor=none;strokeColor=none;fontColor=#FFFFFF;fontStyle=1;fontFamily=Tahoma;fontSize=14" parent="1" vertex="1">
          <mxGeometry x="757" y="285.5" width="130" height="60" as="geometry" />
        </mxCell>
        <mxCell id="lK6diUsmbHhOEuIBp3vJ-141" value="" style="edgeStyle=elbowEdgeStyle;elbow=vertical;strokeWidth=2;rounded=0;exitX=1;exitY=0.5;exitDx=0;exitDy=0;entryX=0;entryY=0.5;entryDx=0;entryDy=0;" parent="1" source="lK6diUsmbHhOEuIBp3vJ-139" target="lK6diUsmbHhOEuIBp3vJ-140" edge="1">
          <mxGeometry x="-23" y="135.5" width="100" height="100" as="geometry">
            <mxPoint x="670" y="420" as="sourcePoint" />
            <mxPoint x="670" y="460" as="targetPoint" />
          </mxGeometry>
        </mxCell>
        <mxCell id="lK6diUsmbHhOEuIBp3vJ-142" value="" style="edgeStyle=elbowEdgeStyle;elbow=vertical;strokeWidth=2;rounded=0;exitX=1;exitY=0.5;exitDx=0;exitDy=0;entryX=0;entryY=0.5;entryDx=0;entryDy=0;" parent="1" source="33" target="lK6diUsmbHhOEuIBp3vJ-139" edge="1">
          <mxGeometry x="-23" y="135.5" width="100" height="100" as="geometry">
            <mxPoint x="580" y="320" as="sourcePoint" />
            <mxPoint x="590" y="290" as="targetPoint" />
          </mxGeometry>
        </mxCell>
        <mxCell id="lK6diUsmbHhOEuIBp3vJ-143" value="Lysandroze" style="rounded=1;fillColor=#994C00;gradientColor=none;strokeColor=none;fontColor=#FFFFFF;fontStyle=1;fontFamily=Tahoma;fontSize=14" parent="1" vertex="1">
          <mxGeometry x="30" y="825.5" width="130" height="60" as="geometry" />
        </mxCell>
        <mxCell id="lK6diUsmbHhOEuIBp3vJ-145" value="" style="edgeStyle=elbowEdgeStyle;elbow=horizontal;strokeWidth=2;rounded=0;" parent="1" edge="1">
          <mxGeometry x="-23" y="135.5" width="100" height="100" as="geometry">
            <mxPoint x="190" y="245" as="sourcePoint" />
            <mxPoint x="160" y="850" as="targetPoint" />
            <Array as="points">
              <mxPoint x="190" y="850" />
            </Array>
          </mxGeometry>
        </mxCell>
        <mxCell id="lK6diUsmbHhOEuIBp3vJ-146" value="Volo" style="rounded=1;fillColor=#23445D;gradientColor=none;strokeColor=none;fontColor=#FFFFFF;fontStyle=1;fontFamily=Tahoma;fontSize=14" parent="1" vertex="1">
          <mxGeometry x="280" y="285.5" width="130" height="60" as="geometry" />
        </mxCell>
        <mxCell id="lK6diUsmbHhOEuIBp3vJ-147" value="" style="edgeStyle=elbowEdgeStyle;elbow=vertical;strokeWidth=2;rounded=0;exitX=0;exitY=0.5;exitDx=0;exitDy=0;entryX=1;entryY=0.5;entryDx=0;entryDy=0;" parent="1" source="33" target="lK6diUsmbHhOEuIBp3vJ-146" edge="1">
          <mxGeometry x="-23" y="135.5" width="100" height="100" as="geometry">
            <mxPoint x="310" y="410" as="sourcePoint" />
            <mxPoint x="340" y="410" as="targetPoint" />
          </mxGeometry>
        </mxCell>
        <mxCell id="lK6diUsmbHhOEuIBp3vJ-150" value="Kiera" style="rounded=1;fillColor=#23445D;gradientColor=none;strokeColor=none;fontColor=#FFFFFF;fontStyle=1;fontFamily=Tahoma;fontSize=14" parent="1" vertex="1">
          <mxGeometry x="250" y="190" width="130" height="60" as="geometry" />
        </mxCell>
        <mxCell id="lK6diUsmbHhOEuIBp3vJ-151" value="" style="edgeStyle=elbowEdgeStyle;elbow=vertical;strokeWidth=2;rounded=0;exitX=0.5;exitY=0;exitDx=0;exitDy=0;entryX=0.5;entryY=1;entryDx=0;entryDy=0;" parent="1" source="lK6diUsmbHhOEuIBp3vJ-146" target="lK6diUsmbHhOEuIBp3vJ-150" edge="1">
          <mxGeometry x="-23" y="135.5" width="100" height="100" as="geometry">
            <mxPoint x="330" y="400" as="sourcePoint" />
            <mxPoint x="300" y="400" as="targetPoint" />
          </mxGeometry>
        </mxCell>
        <mxCell id="lK6diUsmbHhOEuIBp3vJ-154" value="Donovan the Bat" style="rounded=1;fillColor=#23445D;gradientColor=none;strokeColor=none;fontColor=#FFFFFF;fontStyle=1;fontFamily=Tahoma;fontSize=14" parent="1" vertex="1">
          <mxGeometry x="615" y="175.5" width="130" height="60" as="geometry" />
        </mxCell>
        <mxCell id="lK6diUsmbHhOEuIBp3vJ-155" value="" style="edgeStyle=elbowEdgeStyle;elbow=vertical;strokeWidth=2;rounded=0;exitX=0.75;exitY=0;exitDx=0;exitDy=0;" parent="1" source="33" edge="1">
          <mxGeometry x="-23" y="135.5" width="100" height="100" as="geometry">
            <mxPoint x="620" y="250" as="sourcePoint" />
            <mxPoint x="680" y="240" as="targetPoint" />
            <Array as="points">
              <mxPoint x="610" y="260" />
            </Array>
          </mxGeometry>
        </mxCell>
        <mxCell id="lK6diUsmbHhOEuIBp3vJ-156" value="" style="edgeStyle=elbowEdgeStyle;elbow=vertical;strokeWidth=2;rounded=0;exitX=1;exitY=0.5;exitDx=0;exitDy=0;" parent="1" source="lK6diUsmbHhOEuIBp3vJ-154" edge="1">
          <mxGeometry x="-23" y="135.5" width="100" height="100" as="geometry">
            <mxPoint x="760" y="220" as="sourcePoint" />
            <mxPoint x="770" y="205" as="targetPoint" />
          </mxGeometry>
        </mxCell>
        <mxCell id="lK6diUsmbHhOEuIBp3vJ-157" value="Samhain the Cat" style="rounded=1;fillColor=#23445D;gradientColor=none;strokeColor=none;fontColor=#FFFFFF;fontStyle=1;fontFamily=Tahoma;fontSize=14" parent="1" vertex="1">
          <mxGeometry x="770" y="175.5" width="130" height="60" as="geometry" />
        </mxCell>
        <mxCell id="lK6diUsmbHhOEuIBp3vJ-158" value="Niracora" style="rounded=1;fillColor=#006600;gradientColor=none;strokeColor=none;fontColor=#FFFFFF;fontStyle=1;fontFamily=Tahoma;fontSize=14" parent="1" vertex="1">
          <mxGeometry x="440" y="1010" width="130" height="60" as="geometry" />
        </mxCell>
        <mxCell id="lK6diUsmbHhOEuIBp3vJ-159" value="Haru" style="rounded=1;fillColor=#006600;gradientColor=none;strokeColor=none;fontColor=#FFFFFF;fontStyle=1;fontFamily=Tahoma;fontSize=14" parent="1" vertex="1">
          <mxGeometry x="440" y="1100" width="130" height="60" as="geometry" />
        </mxCell>
        <mxCell id="lK6diUsmbHhOEuIBp3vJ-160" value="Tiffany" style="rounded=1;fillColor=#006600;gradientColor=none;strokeColor=none;fontColor=#FFFFFF;fontStyle=1;fontFamily=Tahoma;fontSize=14" parent="1" vertex="1">
          <mxGeometry x="440" y="920" width="130" height="60" as="geometry" />
        </mxCell>
        <mxCell id="lK6diUsmbHhOEuIBp3vJ-161" value="" style="edgeStyle=elbowEdgeStyle;elbow=horizontal;strokeWidth=2;rounded=0;exitX=0.5;exitY=1;exitDx=0;exitDy=0;" parent="1" source="lK6diUsmbHhOEuIBp3vJ-160" target="lK6diUsmbHhOEuIBp3vJ-158" edge="1">
          <mxGeometry x="-23" y="135.5" width="100" height="100" as="geometry">
            <mxPoint x="672" y="959.5" as="sourcePoint" />
            <mxPoint x="157" y="609.5" as="targetPoint" />
            <Array as="points">
              <mxPoint x="505" y="1014" />
            </Array>
          </mxGeometry>
        </mxCell>
        <mxCell id="lK6diUsmbHhOEuIBp3vJ-162" value="" style="edgeStyle=elbowEdgeStyle;elbow=vertical;strokeWidth=2;rounded=0" parent="1" target="lK6diUsmbHhOEuIBp3vJ-160" edge="1">
          <mxGeometry x="-23" y="135.5" width="100" height="100" as="geometry">
            <mxPoint x="505" y="890" as="sourcePoint" />
            <mxPoint x="157" y="609.5" as="targetPoint" />
          </mxGeometry>
        </mxCell>
        <mxCell id="lK6diUsmbHhOEuIBp3vJ-163" value="" style="edgeStyle=elbowEdgeStyle;elbow=horizontal;strokeWidth=2;rounded=0;exitX=0.5;exitY=1;exitDx=0;exitDy=0;entryX=0.5;entryY=0;entryDx=0;entryDy=0;" parent="1" source="lK6diUsmbHhOEuIBp3vJ-158" target="lK6diUsmbHhOEuIBp3vJ-159" edge="1">
          <mxGeometry x="-23" y="135.5" width="100" height="100" as="geometry">
            <mxPoint x="590" y="1084" as="sourcePoint" />
            <mxPoint x="590" y="1114" as="targetPoint" />
            <Array as="points" />
          </mxGeometry>
        </mxCell>
        <mxCell id="lK6diUsmbHhOEuIBp3vJ-164" value="Xavier Lee" style="rounded=1;fillColor=#006600;gradientColor=none;strokeColor=none;fontColor=#FFFFFF;fontStyle=1;fontFamily=Tahoma;fontSize=14" parent="1" vertex="1">
          <mxGeometry x="600" y="560" width="130" height="60" as="geometry" />
        </mxCell>
        <mxCell id="lK6diUsmbHhOEuIBp3vJ-165" value="" style="edgeStyle=elbowEdgeStyle;elbow=vertical;strokeWidth=2;rounded=0;exitX=1;exitY=0.5;exitDx=0;exitDy=0;entryX=0;entryY=0.5;entryDx=0;entryDy=0;" parent="1" source="32" target="lK6diUsmbHhOEuIBp3vJ-164" edge="1">
          <mxGeometry x="-23" y="135.5" width="100" height="100" as="geometry">
            <mxPoint x="650" y="664.5" as="sourcePoint" />
            <mxPoint x="650" y="695" as="targetPoint" />
          </mxGeometry>
        </mxCell>
        <mxCell id="lK6diUsmbHhOEuIBp3vJ-167" value="Donna" style="rounded=1;fillColor=#006600;gradientColor=none;strokeColor=none;fontColor=#FFFFFF;fontStyle=1;fontFamily=Tahoma;fontSize=14" parent="1" vertex="1">
          <mxGeometry x="757" y="1010" width="130" height="60" as="geometry" />
        </mxCell>
        <mxCell id="lK6diUsmbHhOEuIBp3vJ-168" value="" style="edgeStyle=elbowEdgeStyle;elbow=vertical;strokeWidth=2;rounded=0;exitX=1;exitY=0.5;exitDx=0;exitDy=0;entryX=0;entryY=0.5;entryDx=0;entryDy=0;" parent="1" source="lK6diUsmbHhOEuIBp3vJ-166" target="lK6diUsmbHhOEuIBp3vJ-167" edge="1">
          <mxGeometry x="-23" y="135.5" width="100" height="100" as="geometry">
            <mxPoint x="670" y="1144.5" as="sourcePoint" />
            <mxPoint x="670" y="1184.5" as="targetPoint" />
          </mxGeometry>
        </mxCell>
        <mxCell id="lK6diUsmbHhOEuIBp3vJ-169" value="" style="edgeStyle=elbowEdgeStyle;elbow=vertical;strokeWidth=2;rounded=0;exitX=1;exitY=0.5;exitDx=0;exitDy=0;entryX=0;entryY=0.5;entryDx=0;entryDy=0;" parent="1" source="lK6diUsmbHhOEuIBp3vJ-158" target="lK6diUsmbHhOEuIBp3vJ-166" edge="1">
          <mxGeometry x="-23" y="135.5" width="100" height="100" as="geometry">
            <mxPoint x="660" y="1124.5" as="sourcePoint" />
            <mxPoint x="687" y="1124.5" as="targetPoint" />
          </mxGeometry>
        </mxCell>
        <mxCell id="lK6diUsmbHhOEuIBp3vJ-170" value="Jezabelle" style="rounded=1;fillColor=#006600;gradientColor=none;strokeColor=none;fontColor=#FFFFFF;fontStyle=1;fontFamily=Tahoma;fontSize=14" parent="1" vertex="1">
          <mxGeometry x="440" y="1194.5" width="130" height="60" as="geometry" />
        </mxCell>
        <mxCell id="lK6diUsmbHhOEuIBp3vJ-171" value="" style="edgeStyle=elbowEdgeStyle;elbow=vertical;strokeWidth=2;rounded=0;exitX=1;exitY=0.5;exitDx=0;exitDy=0;entryX=0;entryY=0.5;entryDx=0;entryDy=0;" parent="1" source="lK6diUsmbHhOEuIBp3vJ-272" target="lK6diUsmbHhOEuIBp3vJ-269" edge="1">
          <mxGeometry x="-23" y="135.5" width="100" height="100" as="geometry">
            <mxPoint x="610" y="1194.5" as="sourcePoint" />
            <mxPoint x="600" y="1224.5" as="targetPoint" />
          </mxGeometry>
        </mxCell>
        <mxCell id="lK6diUsmbHhOEuIBp3vJ-269" value="Rebecca&#xa;&quot;Tribecca&quot;" style="rounded=1;fillColor=#006600;gradientColor=none;strokeColor=none;fontColor=#FFFFFF;fontStyle=1;fontFamily=Tahoma;fontSize=14" parent="1" vertex="1">
          <mxGeometry x="600" y="1284.5" width="130" height="60" as="geometry" />
        </mxCell>
        <mxCell id="lK6diUsmbHhOEuIBp3vJ-270" value="" style="edgeStyle=elbowEdgeStyle;elbow=vertical;strokeWidth=2;rounded=0;exitX=0.5;exitY=1;exitDx=0;exitDy=0;entryX=0.5;entryY=0;entryDx=0;entryDy=0;" parent="1" source="lK6diUsmbHhOEuIBp3vJ-159" target="lK6diUsmbHhOEuIBp3vJ-170" edge="1">
          <mxGeometry x="-23" y="135.5" width="100" height="100" as="geometry">
            <mxPoint x="600" y="1154.5" as="sourcePoint" />
            <mxPoint x="630" y="1154.5" as="targetPoint" />
          </mxGeometry>
        </mxCell>
        <mxCell id="lK6diUsmbHhOEuIBp3vJ-271" value="" style="edgeStyle=elbowEdgeStyle;elbow=vertical;strokeWidth=2;rounded=0;exitX=0.5;exitY=1;exitDx=0;exitDy=0;" parent="1" source="lK6diUsmbHhOEuIBp3vJ-170" edge="1">
          <mxGeometry x="-23" y="135.5" width="100" height="100" as="geometry">
            <mxPoint x="510" y="1284.5" as="sourcePoint" />
            <mxPoint x="505" y="1284.5" as="targetPoint" />
          </mxGeometry>
        </mxCell>
        <mxCell id="lK6diUsmbHhOEuIBp3vJ-272" value="Stephanie" style="rounded=1;fillColor=#006600;gradientColor=none;strokeColor=none;fontColor=#FFFFFF;fontStyle=1;fontFamily=Tahoma;fontSize=14" parent="1" vertex="1">
          <mxGeometry x="440" y="1284.5" width="130" height="60" as="geometry" />
        </mxCell>
        <mxCell id="lK6diUsmbHhOEuIBp3vJ-273" value="" style="edgeStyle=elbowEdgeStyle;elbow=vertical;strokeWidth=2;rounded=0;exitX=1;exitY=0.5;exitDx=0;exitDy=0;entryX=0;entryY=0.5;entryDx=0;entryDy=0;" parent="1" source="lK6diUsmbHhOEuIBp3vJ-292" target="lK6diUsmbHhOEuIBp3vJ-274" edge="1">
          <mxGeometry x="-23" y="135.5" width="100" height="100" as="geometry">
            <mxPoint x="600" y="1304.5" as="sourcePoint" />
            <mxPoint x="600" y="1314.5" as="targetPoint" />
          </mxGeometry>
        </mxCell>
        <mxCell id="lK6diUsmbHhOEuIBp3vJ-274" value="Jason" style="rounded=1;fillColor=#006600;gradientColor=none;strokeColor=none;fontColor=#FFFFFF;fontStyle=1;fontFamily=Tahoma;fontSize=14" parent="1" vertex="1">
          <mxGeometry x="600" y="1374.5" width="130" height="60" as="geometry" />
        </mxCell>
        <mxCell id="lK6diUsmbHhOEuIBp3vJ-284" value="Isabel" style="rounded=1;fillColor=#23445D;gradientColor=none;strokeColor=none;fontColor=#FFFFFF;fontStyle=1;fontFamily=Tahoma;fontSize=14" parent="1" vertex="1">
          <mxGeometry x="1030" y="450.5" width="130" height="60" as="geometry" />
        </mxCell>
        <mxCell id="lK6diUsmbHhOEuIBp3vJ-285" value="Alejandra" style="rounded=1;fillColor=#23445D;gradientColor=none;strokeColor=none;fontColor=#FFFFFF;fontStyle=1;fontFamily=Tahoma;fontSize=14" parent="1" vertex="1">
          <mxGeometry x="1030" y="631" width="130" height="60" as="geometry" />
        </mxCell>
        <mxCell id="lK6diUsmbHhOEuIBp3vJ-286" value="Havanna" style="rounded=1;fillColor=#23445D;gradientColor=none;strokeColor=none;fontColor=#FFFFFF;fontStyle=1;fontFamily=Tahoma;fontSize=14" parent="1" vertex="1">
          <mxGeometry x="1030" y="360.5" width="130" height="60" as="geometry" />
        </mxCell>
        <mxCell id="lK6diUsmbHhOEuIBp3vJ-287" value="" style="edgeStyle=elbowEdgeStyle;elbow=horizontal;strokeWidth=2;rounded=0;exitX=0.5;exitY=1;exitDx=0;exitDy=0;" parent="1" source="lK6diUsmbHhOEuIBp3vJ-286" target="lK6diUsmbHhOEuIBp3vJ-284" edge="1">
          <mxGeometry x="-23" y="135.5" width="100" height="100" as="geometry">
            <mxPoint x="1262" y="400" as="sourcePoint" />
            <mxPoint x="747" y="50" as="targetPoint" />
            <Array as="points">
              <mxPoint x="1095" y="454.5" />
            </Array>
          </mxGeometry>
        </mxCell>
        <mxCell id="lK6diUsmbHhOEuIBp3vJ-288" value="" style="edgeStyle=elbowEdgeStyle;elbow=horizontal;strokeWidth=2;rounded=0;exitX=0.5;exitY=1;exitDx=0;exitDy=0;" parent="1" source="lK6diUsmbHhOEuIBp3vJ-284" edge="1">
          <mxGeometry x="-23" y="135.5" width="100" height="100" as="geometry">
            <mxPoint x="1180" y="524.5" as="sourcePoint" />
            <mxPoint x="1095" y="545.5" as="targetPoint" />
            <Array as="points" />
          </mxGeometry>
        </mxCell>
        <mxCell id="lK6diUsmbHhOEuIBp3vJ-289" value="" style="edgeStyle=elbowEdgeStyle;elbow=vertical;strokeWidth=2;rounded=0;entryX=0.5;entryY=0;entryDx=0;entryDy=0;exitX=0.5;exitY=1;exitDx=0;exitDy=0;" parent="1" source="lK6diUsmbHhOEuIBp3vJ-285" target="lK6diUsmbHhOEuIBp3vJ-315" edge="1">
          <mxGeometry x="-23" y="135.5" width="100" height="100" as="geometry">
            <mxPoint x="1095" y="695.5" as="sourcePoint" />
            <mxPoint x="1095" y="706" as="targetPoint" />
          </mxGeometry>
        </mxCell>
        <mxCell id="lK6diUsmbHhOEuIBp3vJ-290" value="Fellnora" style="rounded=1;fillColor=#23445D;gradientColor=none;strokeColor=none;fontColor=#FFFFFF;fontStyle=1;fontFamily=Tahoma;fontSize=14" parent="1" vertex="1">
          <mxGeometry x="280" y="1010" width="130" height="60" as="geometry" />
        </mxCell>
        <mxCell id="lK6diUsmbHhOEuIBp3vJ-291" value="" style="edgeStyle=elbowEdgeStyle;elbow=horizontal;strokeWidth=2;rounded=0;exitX=0;exitY=0.5;exitDx=0;exitDy=0;entryX=1;entryY=0.5;entryDx=0;entryDy=0;" parent="1" source="lK6diUsmbHhOEuIBp3vJ-158" target="lK6diUsmbHhOEuIBp3vJ-290" edge="1">
          <mxGeometry x="-23" y="135.5" width="100" height="100" as="geometry">
            <mxPoint x="370" y="914.5" as="sourcePoint" />
            <mxPoint x="370" y="944.5" as="targetPoint" />
            <Array as="points" />
          </mxGeometry>
        </mxCell>
        <mxCell id="lK6diUsmbHhOEuIBp3vJ-292" value="Krystalline" style="rounded=1;fillColor=#006600;gradientColor=none;strokeColor=none;fontColor=#FFFFFF;fontStyle=1;fontFamily=Tahoma;fontSize=14" parent="1" vertex="1">
          <mxGeometry x="440" y="1374.5" width="130" height="60" as="geometry" />
        </mxCell>
        <mxCell id="lK6diUsmbHhOEuIBp3vJ-294" value="" style="edgeStyle=elbowEdgeStyle;elbow=vertical;strokeWidth=2;rounded=0;exitX=0.5;exitY=1;exitDx=0;exitDy=0;entryX=0.5;entryY=0;entryDx=0;entryDy=0;" parent="1" source="lK6diUsmbHhOEuIBp3vJ-272" target="lK6diUsmbHhOEuIBp3vJ-292" edge="1">
          <mxGeometry x="-23" y="135.5" width="100" height="100" as="geometry">
            <mxPoint x="370" y="1384.5" as="sourcePoint" />
            <mxPoint x="370" y="1418.5" as="targetPoint" />
          </mxGeometry>
        </mxCell>
        <mxCell id="lK6diUsmbHhOEuIBp3vJ-295" value="" style="edgeStyle=elbowEdgeStyle;elbow=vertical;strokeWidth=2;rounded=0;exitX=0.5;exitY=0;exitDx=0;exitDy=0;entryX=0.5;entryY=1;entryDx=0;entryDy=0;" parent="1" source="lK6diUsmbHhOEuIBp3vJ-167" target="lK6diUsmbHhOEuIBp3vJ-296" edge="1">
          <mxGeometry x="-23" y="135.5" width="100" height="100" as="geometry">
            <mxPoint x="800" y="914.5" as="sourcePoint" />
            <mxPoint x="822" y="984.5" as="targetPoint" />
          </mxGeometry>
        </mxCell>
        <mxCell id="lK6diUsmbHhOEuIBp3vJ-296" value="Ishmael" style="rounded=1;fillColor=#23445D;gradientColor=none;strokeColor=none;fontColor=#FFFFFF;fontStyle=1;fontFamily=Tahoma;fontSize=14" parent="1" vertex="1">
          <mxGeometry x="757" y="914.5" width="130" height="60" as="geometry" />
        </mxCell>
        <mxCell id="lK6diUsmbHhOEuIBp3vJ-298" value="Hakar" style="rounded=1;fillColor=#23445D;gradientColor=none;strokeColor=none;fontColor=#FFFFFF;fontStyle=1;fontFamily=Tahoma;fontSize=14" parent="1" vertex="1">
          <mxGeometry x="1190" y="450.5" width="130" height="60" as="geometry" />
        </mxCell>
        <mxCell id="lK6diUsmbHhOEuIBp3vJ-299" value="Chaskra" style="rounded=1;fillColor=#23445D;gradientColor=none;strokeColor=none;fontColor=#FFFFFF;fontStyle=1;fontFamily=Tahoma;fontSize=14" parent="1" vertex="1">
          <mxGeometry x="1353" y="450.5" width="130" height="60" as="geometry" />
        </mxCell>
        <mxCell id="lK6diUsmbHhOEuIBp3vJ-301" value="" style="edgeStyle=elbowEdgeStyle;elbow=vertical;strokeWidth=2;rounded=0;exitX=1;exitY=0.5;exitDx=0;exitDy=0;entryX=0;entryY=0.5;entryDx=0;entryDy=0;" parent="1" source="lK6diUsmbHhOEuIBp3vJ-284" target="lK6diUsmbHhOEuIBp3vJ-298" edge="1">
          <mxGeometry x="-23" y="135.5" width="100" height="100" as="geometry">
            <mxPoint x="1233" y="565.5" as="sourcePoint" />
            <mxPoint x="1233" y="596" as="targetPoint" />
          </mxGeometry>
        </mxCell>
        <mxCell id="lK6diUsmbHhOEuIBp3vJ-302" value="" style="edgeStyle=elbowEdgeStyle;elbow=vertical;strokeWidth=2;rounded=0;exitX=1;exitY=0.5;exitDx=0;exitDy=0;entryX=0;entryY=0.5;entryDx=0;entryDy=0;" parent="1" source="lK6diUsmbHhOEuIBp3vJ-298" target="lK6diUsmbHhOEuIBp3vJ-299" edge="1">
          <mxGeometry x="-23" y="135.5" width="100" height="100" as="geometry">
            <mxPoint x="1263" y="545.5" as="sourcePoint" />
            <mxPoint x="1263" y="576" as="targetPoint" />
          </mxGeometry>
        </mxCell>
        <mxCell id="lK6diUsmbHhOEuIBp3vJ-303" value="Irekh" style="rounded=1;fillColor=#23445D;gradientColor=none;strokeColor=none;fontColor=#FFFFFF;fontStyle=1;fontFamily=Tahoma;fontSize=14" parent="1" vertex="1">
          <mxGeometry x="1513" y="450.5" width="130" height="60" as="geometry" />
        </mxCell>
        <mxCell id="lK6diUsmbHhOEuIBp3vJ-304" value="" style="edgeStyle=elbowEdgeStyle;elbow=vertical;strokeWidth=2;rounded=0;exitX=1;exitY=0.5;exitDx=0;exitDy=0;entryX=0;entryY=0.5;entryDx=0;entryDy=0;" parent="1" source="lK6diUsmbHhOEuIBp3vJ-299" edge="1">
          <mxGeometry x="-23" y="135.5" width="100" height="100" as="geometry">
            <mxPoint x="1483" y="545.5" as="sourcePoint" />
            <mxPoint x="1513" y="481" as="targetPoint" />
          </mxGeometry>
        </mxCell>
        <mxCell id="lK6diUsmbHhOEuIBp3vJ-305" value="" style="edgeStyle=elbowEdgeStyle;elbow=vertical;strokeWidth=2;rounded=0;exitX=0.5;exitY=0;exitDx=0;exitDy=0;entryX=0.5;entryY=1;entryDx=0;entryDy=0;" parent="1" source="lK6diUsmbHhOEuIBp3vJ-299" target="lK6diUsmbHhOEuIBp3vJ-306" edge="1">
          <mxGeometry x="-23" y="135.5" width="100" height="100" as="geometry">
            <mxPoint x="1423" y="375.5" as="sourcePoint" />
            <mxPoint x="1418" y="430" as="targetPoint" />
            <Array as="points">
              <mxPoint x="1360" y="430" />
            </Array>
          </mxGeometry>
        </mxCell>
        <mxCell id="lK6diUsmbHhOEuIBp3vJ-306" value="The plant nerd" style="rounded=1;fillColor=#23445D;gradientColor=none;strokeColor=none;fontColor=#FFFFFF;fontStyle=1;fontFamily=Tahoma;fontSize=14" parent="1" vertex="1">
          <mxGeometry x="1353" y="360.5" width="130" height="60" as="geometry" />
        </mxCell>
        <mxCell id="lK6diUsmbHhOEuIBp3vJ-307" value="His kid" style="rounded=1;fillColor=#23445D;gradientColor=none;strokeColor=none;fontColor=#FFFFFF;fontStyle=1;fontFamily=Tahoma;fontSize=14" parent="1" vertex="1">
          <mxGeometry x="1513" y="540" width="130" height="60" as="geometry" />
        </mxCell>
        <mxCell id="lK6diUsmbHhOEuIBp3vJ-308" value="" style="edgeStyle=elbowEdgeStyle;elbow=vertical;strokeWidth=2;rounded=0;exitX=0.5;exitY=1;exitDx=0;exitDy=0;entryX=0.5;entryY=0;entryDx=0;entryDy=0;" parent="1" edge="1">
          <mxGeometry x="-23" y="135.5" width="100" height="100" as="geometry">
            <mxPoint x="1578" y="511" as="sourcePoint" />
            <mxPoint x="1578" y="541" as="targetPoint" />
          </mxGeometry>
        </mxCell>
        <mxCell id="lK6diUsmbHhOEuIBp3vJ-314" value="" style="edgeStyle=orthogonalEdgeStyle;rounded=0;orthogonalLoop=1;jettySize=auto;html=1;" parent="1" source="lK6diUsmbHhOEuIBp3vJ-311" target="lK6diUsmbHhOEuIBp3vJ-312" edge="1">
          <mxGeometry relative="1" as="geometry" />
        </mxCell>
        <mxCell id="lK6diUsmbHhOEuIBp3vJ-311" value="Michael&#xa;(Divorced)" style="rounded=1;fillColor=#23445D;gradientColor=none;strokeColor=none;fontColor=#FFFFFF;fontStyle=1;fontFamily=Tahoma;fontSize=14" parent="1" vertex="1">
          <mxGeometry x="1190" y="631" width="130" height="60" as="geometry" />
        </mxCell>
        <mxCell id="lK6diUsmbHhOEuIBp3vJ-312" value="Trinity" style="rounded=1;fillColor=#23445D;gradientColor=none;strokeColor=none;fontColor=#FFFFFF;fontStyle=1;fontFamily=Tahoma;fontSize=14" parent="1" vertex="1">
          <mxGeometry x="1353" y="631" width="130" height="60" as="geometry" />
        </mxCell>
        <mxCell id="lK6diUsmbHhOEuIBp3vJ-313" value="" style="edgeStyle=elbowEdgeStyle;elbow=vertical;strokeWidth=2;rounded=0;exitX=1;exitY=0.5;exitDx=0;exitDy=0;entryX=0;entryY=0.5;entryDx=0;entryDy=0;" parent="1" source="lK6diUsmbHhOEuIBp3vJ-285" target="lK6diUsmbHhOEuIBp3vJ-311" edge="1">
          <mxGeometry x="-23" y="135.5" width="100" height="100" as="geometry">
            <mxPoint x="1160" y="645.7" as="sourcePoint" />
            <mxPoint x="1190" y="645.7" as="targetPoint" />
          </mxGeometry>
        </mxCell>
        <mxCell id="lK6diUsmbHhOEuIBp3vJ-315" value="Cassiopeia" style="rounded=1;fillColor=#23445D;gradientColor=none;strokeColor=none;fontColor=#FFFFFF;fontStyle=1;fontFamily=Tahoma;fontSize=14" parent="1" vertex="1">
          <mxGeometry x="1030" y="721" width="130" height="60" as="geometry" />
        </mxCell>
        <mxCell id="lK6diUsmbHhOEuIBp3vJ-316" value="His sister" style="rounded=1;fillColor=#23445D;gradientColor=none;strokeColor=none;fontColor=#FFFFFF;fontStyle=1;fontFamily=Tahoma;fontSize=14" parent="1" vertex="1">
          <mxGeometry x="1190" y="805.5" width="130" height="60" as="geometry" />
        </mxCell>
        <mxCell id="lK6diUsmbHhOEuIBp3vJ-317" value="Riven" style="rounded=1;fillColor=#23445D;gradientColor=none;strokeColor=none;fontColor=#FFFFFF;fontStyle=1;fontFamily=Tahoma;fontSize=14" parent="1" vertex="1">
          <mxGeometry x="1030" y="805.5" width="130" height="60" as="geometry" />
        </mxCell>
        <mxCell id="lK6diUsmbHhOEuIBp3vJ-318" value="Johnathon" style="rounded=1;fillColor=#23445D;gradientColor=none;strokeColor=none;fontColor=#FFFFFF;fontStyle=1;fontFamily=Tahoma;fontSize=14" parent="1" vertex="1">
          <mxGeometry x="1030" y="895.5" width="130" height="60" as="geometry" />
        </mxCell>
        <mxCell id="lK6diUsmbHhOEuIBp3vJ-319" value="Leo" style="rounded=1;fillColor=#23445D;gradientColor=none;strokeColor=none;fontColor=#FFFFFF;fontStyle=1;fontFamily=Tahoma;fontSize=14" parent="1" vertex="1">
          <mxGeometry x="1030" y="985.5" width="130" height="60" as="geometry" />
        </mxCell>
        <mxCell id="lK6diUsmbHhOEuIBp3vJ-320" value="" style="edgeStyle=elbowEdgeStyle;elbow=vertical;strokeWidth=2;rounded=0;exitX=1;exitY=0.5;exitDx=0;exitDy=0;entryX=0;entryY=0.5;entryDx=0;entryDy=0;" parent="1" source="lK6diUsmbHhOEuIBp3vJ-317" target="lK6diUsmbHhOEuIBp3vJ-316" edge="1">
          <mxGeometry x="-23" y="135.5" width="100" height="100" as="geometry">
            <mxPoint x="1203" y="900.5" as="sourcePoint" />
            <mxPoint x="1203" y="931" as="targetPoint" />
          </mxGeometry>
        </mxCell>
        <mxCell id="lK6diUsmbHhOEuIBp3vJ-321" value="" style="edgeStyle=elbowEdgeStyle;elbow=vertical;strokeWidth=2;rounded=0;entryX=0.5;entryY=0;entryDx=0;entryDy=0;exitX=0.5;exitY=1;exitDx=0;exitDy=0;" parent="1" source="lK6diUsmbHhOEuIBp3vJ-315" target="lK6diUsmbHhOEuIBp3vJ-317" edge="1">
          <mxGeometry x="-23" y="135.5" width="100" height="100" as="geometry">
            <mxPoint x="1203" y="740.5" as="sourcePoint" />
            <mxPoint x="1203" y="771" as="targetPoint" />
          </mxGeometry>
        </mxCell>
        <mxCell id="lK6diUsmbHhOEuIBp3vJ-322" value="" style="edgeStyle=elbowEdgeStyle;elbow=vertical;strokeWidth=2;rounded=0;exitX=0.5;exitY=1;exitDx=0;exitDy=0;entryX=0.5;entryY=0;entryDx=0;entryDy=0;" parent="1" source="lK6diUsmbHhOEuIBp3vJ-317" target="lK6diUsmbHhOEuIBp3vJ-318" edge="1">
          <mxGeometry x="-23" y="135.5" width="100" height="100" as="geometry">
            <mxPoint x="1213" y="930.5" as="sourcePoint" />
            <mxPoint x="1213" y="961" as="targetPoint" />
          </mxGeometry>
        </mxCell>
        <mxCell id="lK6diUsmbHhOEuIBp3vJ-323" value="" style="edgeStyle=elbowEdgeStyle;elbow=vertical;strokeWidth=2;rounded=0;exitX=0.5;exitY=1;exitDx=0;exitDy=0;entryX=0.5;entryY=0;entryDx=0;entryDy=0;" parent="1" source="lK6diUsmbHhOEuIBp3vJ-318" target="lK6diUsmbHhOEuIBp3vJ-319" edge="1">
          <mxGeometry x="-23" y="135.5" width="100" height="100" as="geometry">
            <mxPoint x="1233" y="980.5" as="sourcePoint" />
            <mxPoint x="1095" y="978.5" as="targetPoint" />
          </mxGeometry>
        </mxCell>
        <mxCell id="lK6diUsmbHhOEuIBp3vJ-332" value="" style="edgeStyle=orthogonalEdgeStyle;rounded=0;orthogonalLoop=1;jettySize=auto;html=1;exitX=0;exitY=0.5;exitDx=0;exitDy=0;" parent="1" source="lK6diUsmbHhOEuIBp3vJ-324" edge="1">
          <mxGeometry relative="1" as="geometry">
            <mxPoint x="1030" y="559.9999999999998" as="sourcePoint" />
            <mxPoint x="665" y="1044.5" as="targetPoint" />
            <Array as="points">
              <mxPoint x="800" y="575" />
              <mxPoint x="800" y="670" />
              <mxPoint x="665" y="670" />
            </Array>
          </mxGeometry>
        </mxCell>
        <mxCell id="lK6diUsmbHhOEuIBp3vJ-324" value="Viktor" style="rounded=1;fillColor=#23445D;gradientColor=none;strokeColor=none;fontColor=#FFFFFF;fontStyle=1;fontFamily=Tahoma;fontSize=14" parent="1" vertex="1">
          <mxGeometry x="1030" y="545.5" width="130" height="60" as="geometry" />
        </mxCell>
        <mxCell id="lK6diUsmbHhOEuIBp3vJ-326" value="The other&#xa;daughter" style="rounded=1;fillColor=#23445D;gradientColor=none;strokeColor=none;fontColor=#FFFFFF;fontStyle=1;fontFamily=Tahoma;fontSize=14" parent="1" vertex="1">
          <mxGeometry x="870" y="450" width="130" height="60" as="geometry" />
        </mxCell>
        <mxCell id="lK6diUsmbHhOEuIBp3vJ-328" value="" style="edgeStyle=elbowEdgeStyle;elbow=horizontal;strokeWidth=2;rounded=0;exitX=0;exitY=0.5;exitDx=0;exitDy=0;entryX=1;entryY=0.5;entryDx=0;entryDy=0;" parent="1" source="lK6diUsmbHhOEuIBp3vJ-284" edge="1">
          <mxGeometry x="-23" y="135.5" width="100" height="100" as="geometry">
            <mxPoint x="983" y="525.5" as="sourcePoint" />
            <mxPoint x="999.9999999999995" y="480.5" as="targetPoint" />
            <Array as="points" />
          </mxGeometry>
        </mxCell>
        <mxCell id="lK6diUsmbHhOEuIBp3vJ-329" value="Christina" style="rounded=1;fillColor=#006600;gradientColor=none;strokeColor=none;fontColor=#FFFFFF;fontStyle=1;fontFamily=Tahoma;fontSize=14" parent="1" vertex="1">
          <mxGeometry x="440" y="470" width="130" height="60" as="geometry" />
        </mxCell>
        <mxCell id="lK6diUsmbHhOEuIBp3vJ-330" value="" style="edgeStyle=elbowEdgeStyle;elbow=horizontal;strokeWidth=2;rounded=0;exitX=0.5;exitY=1;exitDx=0;exitDy=0;entryX=0.5;entryY=0;entryDx=0;entryDy=0;" parent="1" source="30" target="lK6diUsmbHhOEuIBp3vJ-329" edge="1">
          <mxGeometry x="-23" y="135.5" width="100" height="100" as="geometry">
            <mxPoint x="510" y="470" as="sourcePoint" />
            <mxPoint x="510" y="500" as="targetPoint" />
            <Array as="points" />
          </mxGeometry>
        </mxCell>
        <mxCell id="lK6diUsmbHhOEuIBp3vJ-166" value="Viktor" style="rounded=1;fillColor=#006600;gradientColor=none;strokeColor=none;fontColor=#FFFFFF;fontStyle=1;fontFamily=Tahoma;fontSize=14" parent="1" vertex="1">
          <mxGeometry x="600" y="1010" width="130" height="60" as="geometry" />
        </mxCell>
        <mxCell id="lK6diUsmbHhOEuIBp3vJ-342" value="Fade Child Types:" style="swimlane;fontStyle=0;childLayout=stackLayout;horizontal=1;startSize=30;horizontalStack=0;resizeParent=1;resizeParentMax=0;resizeLast=0;collapsible=1;marginBottom=0;whiteSpace=wrap;html=1;" parent="1" vertex="1">
          <mxGeometry x="1600" y="10" width="140" height="120" as="geometry" />
        </mxCell>
        <mxCell id="lK6diUsmbHhOEuIBp3vJ-343" value="Fade" style="text;strokeColor=none;fillColor=none;align=left;verticalAlign=middle;spacingLeft=4;spacingRight=4;overflow=hidden;points=[[0,0.5],[1,0.5]];portConstraint=eastwest;rotatable=0;whiteSpace=wrap;html=1;" parent="lK6diUsmbHhOEuIBp3vJ-342" vertex="1">
          <mxGeometry y="30" width="140" height="30" as="geometry" />
        </mxCell>
        <mxCell id="lK6diUsmbHhOEuIBp3vJ-344" value="Guardian&amp;nbsp;" style="text;strokeColor=none;fillColor=none;align=left;verticalAlign=middle;spacingLeft=4;spacingRight=4;overflow=hidden;points=[[0,0.5],[1,0.5]];portConstraint=eastwest;rotatable=0;whiteSpace=wrap;html=1;" parent="lK6diUsmbHhOEuIBp3vJ-342" vertex="1">
          <mxGeometry y="60" width="140" height="30" as="geometry" />
        </mxCell>
        <mxCell id="lK6diUsmbHhOEuIBp3vJ-345" value="Unbound" style="text;strokeColor=none;fillColor=none;align=left;verticalAlign=middle;spacingLeft=4;spacingRight=4;overflow=hidden;points=[[0,0.5],[1,0.5]];portConstraint=eastwest;rotatable=0;whiteSpace=wrap;html=1;" parent="lK6diUsmbHhOEuIBp3vJ-342" vertex="1">
          <mxGeometry y="90" width="140" height="30" as="geometry" />
        </mxCell>
        <mxCell id="lK6diUsmbHhOEuIBp3vJ-346" value="Computer/Long Distance&lt;div&gt;Required:&lt;/div&gt;" style="swimlane;fontStyle=0;childLayout=stackLayout;horizontal=1;startSize=30;horizontalStack=0;resizeParent=1;resizeParentMax=0;resizeLast=0;collapsible=1;marginBottom=0;whiteSpace=wrap;html=1;" parent="1" vertex="1">
          <mxGeometry x="1600" y="130" width="140" height="120" as="geometry" />
        </mxCell>
        <mxCell id="lK6diUsmbHhOEuIBp3vJ-347" value="Compiler" style="text;strokeColor=none;fillColor=none;align=left;verticalAlign=middle;spacingLeft=4;spacingRight=4;overflow=hidden;points=[[0,0.5],[1,0.5]];portConstraint=eastwest;rotatable=0;whiteSpace=wrap;html=1;" parent="lK6diUsmbHhOEuIBp3vJ-346" vertex="1">
          <mxGeometry y="30" width="140" height="30" as="geometry" />
        </mxCell>
        <mxCell id="lK6diUsmbHhOEuIBp3vJ-348" value="Glitch" style="text;strokeColor=none;fillColor=none;align=left;verticalAlign=middle;spacingLeft=4;spacingRight=4;overflow=hidden;points=[[0,0.5],[1,0.5]];portConstraint=eastwest;rotatable=0;whiteSpace=wrap;html=1;" parent="lK6diUsmbHhOEuIBp3vJ-346" vertex="1">
          <mxGeometry y="60" width="140" height="30" as="geometry" />
        </mxCell>
        <mxCell id="lK6diUsmbHhOEuIBp3vJ-349" value="Malware" style="text;strokeColor=none;fillColor=none;align=left;verticalAlign=middle;spacingLeft=4;spacingRight=4;overflow=hidden;points=[[0,0.5],[1,0.5]];portConstraint=eastwest;rotatable=0;whiteSpace=wrap;html=1;" parent="lK6diUsmbHhOEuIBp3vJ-346" vertex="1">
          <mxGeometry y="90" width="140" height="30" as="geometry" />
        </mxCell>
        <mxCell id="v3RgWujgD99jr8TwHfvd-120" value="NPCs (Council, etc)" style="html=1;whiteSpace=wrap;container=1;recursiveResize=0;collapsible=0;" vertex="1" parent="1">
          <mxGeometry x="1430" y="60" width="160" height="20" as="geometry" />
        </mxCell>
        <mxCell id="v3RgWujgD99jr8TwHfvd-136" value="" style="triangle;html=1;whiteSpace=wrap;" vertex="1" parent="v3RgWujgD99jr8TwHfvd-120">
          <mxGeometry y="2.5" width="10" height="15" as="geometry" />
        </mxCell>
        <mxCell id="v3RgWujgD99jr8TwHfvd-118" value="Pets/Creatures" style="html=1;whiteSpace=wrap;container=1;recursiveResize=0;collapsible=0;" vertex="1" parent="v3RgWujgD99jr8TwHfvd-120">
          <mxGeometry y="-20" width="160" height="20" as="geometry" />
        </mxCell>
        <mxCell id="v3RgWujgD99jr8TwHfvd-137" value="" style="triangle;html=1;whiteSpace=wrap;" vertex="1" parent="v3RgWujgD99jr8TwHfvd-118">
          <mxGeometry y="2.5" width="10" height="15" as="geometry" />
        </mxCell>
        <mxCell id="v3RgWujgD99jr8TwHfvd-122" value="Other Houses" style="html=1;whiteSpace=wrap;container=1;recursiveResize=0;collapsible=0;" vertex="1" parent="1">
          <mxGeometry x="1430" y="80" width="160" height="20" as="geometry" />
        </mxCell>
        <mxCell id="v3RgWujgD99jr8TwHfvd-135" value="" style="triangle;html=1;whiteSpace=wrap;" vertex="1" parent="v3RgWujgD99jr8TwHfvd-122">
          <mxGeometry y="2.5" width="10" height="15" as="geometry" />
        </mxCell>
        <mxCell id="v3RgWujgD99jr8TwHfvd-124" value="Angel/Lockhart Home" style="html=1;whiteSpace=wrap;container=1;recursiveResize=0;collapsible=0;" vertex="1" parent="1">
          <mxGeometry x="1430" y="100" width="160" height="20" as="geometry" />
        </mxCell>
        <mxCell id="v3RgWujgD99jr8TwHfvd-134" value="" style="triangle;html=1;whiteSpace=wrap;" vertex="1" parent="v3RgWujgD99jr8TwHfvd-124">
          <mxGeometry y="2.5" width="10" height="15" as="geometry" />
        </mxCell>
        <mxCell id="v3RgWujgD99jr8TwHfvd-126" value="&amp;amp; Friends" style="html=1;whiteSpace=wrap;container=1;recursiveResize=0;collapsible=0;" vertex="1" parent="1">
          <mxGeometry x="1430" y="120" width="160" height="20" as="geometry" />
        </mxCell>
        <mxCell id="v3RgWujgD99jr8TwHfvd-133" value="" style="triangle;html=1;whiteSpace=wrap;" vertex="1" parent="v3RgWujgD99jr8TwHfvd-126">
          <mxGeometry y="2.5" width="10" height="15" as="geometry" />
        </mxCell>
        <mxCell id="v3RgWujgD99jr8TwHfvd-128" value="Other Houses" style="html=1;whiteSpace=wrap;container=1;recursiveResize=0;collapsible=0;" vertex="1" parent="1">
          <mxGeometry x="1430" y="140" width="160" height="20" as="geometry" />
        </mxCell>
        <mxCell id="v3RgWujgD99jr8TwHfvd-132" value="" style="triangle;html=1;whiteSpace=wrap;" vertex="1" parent="v3RgWujgD99jr8TwHfvd-128">
          <mxGeometry y="2.5" width="10" height="15" as="geometry" />
        </mxCell>
        <mxCell id="v3RgWujgD99jr8TwHfvd-130" value="&quot;Real World&quot; crossover" style="html=1;whiteSpace=wrap;container=1;recursiveResize=0;collapsible=0;" vertex="1" parent="1">
          <mxGeometry x="1430" y="160" width="160" height="20" as="geometry" />
        </mxCell>
        <mxCell id="v3RgWujgD99jr8TwHfvd-131" value="" style="triangle;html=1;whiteSpace=wrap;" vertex="1" parent="v3RgWujgD99jr8TwHfvd-130">
          <mxGeometry y="2.5" width="10" height="15" as="geometry" />
        </mxCell>
        <mxCell id="v3RgWujgD99jr8TwHfvd-139" value="" style="shape=ext;double=1;rounded=0;whiteSpace=wrap;html=1;" vertex="1" parent="1">
          <mxGeometry x="1430" y="10" width="160" height="30" as="geometry" />
        </mxCell>
        <mxCell id="v3RgWujgD99jr8TwHfvd-141" value="&lt;font style=&quot;font-size: 9px;&quot;&gt;C&lt;font style=&quot;&quot;&gt;lassifications&lt;/font&gt;&lt;/font&gt;&lt;font style=&quot;font-size: 9px;&quot;&gt;:&lt;/font&gt;" style="text;strokeColor=none;fillColor=none;html=1;fontSize=24;fontStyle=1;verticalAlign=middle;align=center;" vertex="1" parent="1">
          <mxGeometry x="1460" y="10" width="100" height="22.5" as="geometry" />
        </mxCell>
        <mxCell id="v3RgWujgD99jr8TwHfvd-143" value="Rivals &amp;amp; their factions" style="html=1;whiteSpace=wrap;container=1;recursiveResize=0;collapsible=0;" vertex="1" parent="1">
          <mxGeometry x="1430" y="180" width="160" height="20" as="geometry" />
        </mxCell>
        <mxCell id="v3RgWujgD99jr8TwHfvd-144" value="" style="triangle;html=1;whiteSpace=wrap;" vertex="1" parent="v3RgWujgD99jr8TwHfvd-143">
          <mxGeometry y="2.5" width="10" height="15" as="geometry" />
        </mxCell>
        <mxCell id="v3RgWujgD99jr8TwHfvd-145" value="Misc. Seers/Houses" style="html=1;whiteSpace=wrap;container=1;recursiveResize=0;collapsible=0;" vertex="1" parent="1">
          <mxGeometry x="1430" y="200" width="160" height="20" as="geometry" />
        </mxCell>
        <mxCell id="v3RgWujgD99jr8TwHfvd-146" value="" style="triangle;html=1;whiteSpace=wrap;" vertex="1" parent="v3RgWujgD99jr8TwHfvd-145">
          <mxGeometry y="2.5" width="10" height="15" as="geometry" />
        </mxCell>
      </root>
    </mxGraphModel>
  </diagram>
</mxfile>
